<svg t="1726582206724" class="icon" viewBox="0 0 1024 1024" version="1.1"
  xmlns="http://www.w3.org/2000/svg" p-id="1480" width="256" height="256">
  <path
    d="M363.1616 879.4624H222.9248c-43.4176 0-78.592-35.1744-78.592-78.592v-145.8688c0-43.4176 35.1744-78.592 78.592-78.592h140.2368c43.4176 0 78.592 35.1744 78.592 78.592v145.8688c0 43.4176-35.1744 78.592-78.592 78.592z"
    fill="#FF5F5F" p-id="1481"></path>
  <path
    d="M363.1616 894.8224H222.9248c-51.8144 0-93.952-42.1376-93.952-93.952v-145.8688c0-51.8144 42.1376-93.952 93.952-93.952h140.2368c51.8144 0 93.952 42.1376 93.952 93.952v145.8688c0 51.8144-42.1376 93.952-93.952 93.952z m-140.2368-303.0528c-34.8672 0-63.232 28.3648-63.232 63.232v145.8688c0 34.8672 28.3648 63.232 63.232 63.232h140.2368c34.8672 0 63.232-28.3648 63.232-63.232v-145.8688c0-34.8672-28.3648-63.232-63.232-63.232H222.9248z"
    fill="#424242" p-id="1482"></path>
  <path
    d="M774.7584 879.4624h-140.2368c-43.4176 0-78.592-35.1744-78.592-78.592v-145.8688c0-43.4176 35.1744-78.592 78.592-78.592h140.2368c43.4176 0 78.592 35.1744 78.592 78.592v145.8688c0 43.4176-35.1744 78.592-78.592 78.592z"
    fill="#FF5F5F" p-id="1483"></path>
  <path
    d="M774.7584 894.8224h-140.2368c-51.8144 0-93.952-42.1376-93.952-93.952v-145.8688c0-51.8144 42.1376-93.952 93.952-93.952h140.2368c51.8144 0 93.952 42.1376 93.952 93.952v145.8688c0 51.8144-42.1376 93.952-93.952 93.952z m-140.1856-303.0528c-34.8672 0-63.232 28.3648-63.232 63.232v145.8688c0 34.8672 28.3648 63.232 63.232 63.232h140.2368c34.8672 0 63.232-28.3648 63.232-63.232v-145.8688c0-34.8672-28.3648-63.232-63.232-63.232h-140.2368zM706.6624 524.9536c-24.064 0-48.128-9.1648-66.4064-27.4944L537.088 394.3424c-36.608-36.608-36.608-96.256 0-132.864l99.1744-99.1744c17.7664-17.7664 41.3184-27.5456 66.4576-27.5456s48.6912 9.7792 66.4064 27.5456l103.168 103.168c36.608 36.608 36.608 96.256 0 132.864L773.12 497.5104a93.8496 93.8496 0 0 1-66.4576 27.4432z m-3.9936-359.424c-16.896 0-32.768 6.5536-44.6976 18.5344l-99.1744 99.1232c-24.6272 24.6784-24.6272 64.768 0 89.4464l103.168 103.168c24.6784 24.6784 64.768 24.6272 89.4464 0l99.1744-99.1232c24.6272-24.6272 24.6272-64.768 0-89.4464l-103.168-103.168a62.81216 62.81216 0 0 0-44.7488-18.5344z"
    fill="#424242" p-id="1484"></path>
  <path
    d="M363.1616 481.4336H222.9248c-43.4176 0-78.592-35.1744-78.592-78.592V256.9728c0-43.4176 35.1744-78.592 78.592-78.592h140.2368c43.4176 0 78.592 35.1744 78.592 78.592v145.8688c0 43.4176-35.1744 78.592-78.592 78.592z"
    fill="#FF5F5F" p-id="1485"></path>
  <path
    d="M363.1616 496.7936H222.9248c-51.8144 0-93.952-42.1376-93.952-93.952V256.9728c0-51.8144 42.1376-93.952 93.952-93.952h140.2368c51.8144 0 93.952 42.1376 93.952 93.952v145.8688c0 51.8144-42.1376 93.952-93.952 93.952zM222.9248 193.7408c-34.8672 0-63.232 28.3648-63.232 63.232v145.8688c0 34.8672 28.3648 63.232 63.232 63.232h140.2368c34.8672 0 63.232-28.3648 63.232-63.232V256.9728c0-34.8672-28.3648-63.232-63.232-63.232H222.9248z"
    fill="#424242" p-id="1486"></path>
</svg>